<svg id="visual" viewBox="0 0 1920 300" width="1920" height="300" xmlns="http://www.w3.org/2000/svg" xmlns:xlink="http://www.w3.org/1999/xlink" version="1.1"><path d="M0 239L128 239L128 239L256 239L256 269L384 269L384 250L512 250L512 246L640 246L640 252L768 252L768 237L896 237L896 238L1024 238L1024 267L1152 267L1152 257L1280 257L1280 270L1408 270L1408 278L1536 278L1536 281L1664 281L1664 270L1792 270L1792 259L1920 259L1920 248L1920 0L1920 0L1792 0L1792 0L1664 0L1664 0L1536 0L1536 0L1408 0L1408 0L1280 0L1280 0L1152 0L1152 0L1024 0L1024 0L896 0L896 0L768 0L768 0L640 0L640 0L512 0L512 0L384 0L384 0L256 0L256 0L128 0L128 0L0 0Z" fill="#9b0cda"></path><path d="M0 241L128 241L128 241L256 241L256 225L384 225L384 237L512 237L512 235L640 235L640 222L768 222L768 251L896 251L896 226L1024 226L1024 246L1152 246L1152 232L1280 232L1280 254L1408 254L1408 230L1536 230L1536 243L1664 243L1664 221L1792 221L1792 249L1920 249L1920 218L1920 0L1920 0L1792 0L1792 0L1664 0L1664 0L1536 0L1536 0L1408 0L1408 0L1280 0L1280 0L1152 0L1152 0L1024 0L1024 0L896 0L896 0L768 0L768 0L640 0L640 0L512 0L512 0L384 0L384 0L256 0L256 0L128 0L128 0L0 0Z" fill="#c600bf"></path><path d="M0 220L128 220L128 236L256 236L256 232L384 232L384 195L512 195L512 231L640 231L640 211L768 211L768 229L896 229L896 210L1024 210L1024 203L1152 203L1152 231L1280 231L1280 228L1408 228L1408 212L1536 212L1536 200L1664 200L1664 231L1792 231L1792 224L1920 224L1920 191L1920 0L1920 0L1792 0L1792 0L1664 0L1664 0L1536 0L1536 0L1408 0L1408 0L1280 0L1280 0L1152 0L1152 0L1024 0L1024 0L896 0L896 0L768 0L768 0L640 0L640 0L512 0L512 0L384 0L384 0L256 0L256 0L128 0L128 0L0 0Z" fill="#e100a4"></path><path d="M0 211L128 211L128 175L256 175L256 183L384 183L384 176L512 176L512 198L640 198L640 201L768 201L768 179L896 179L896 213L1024 213L1024 185L1152 185L1152 209L1280 209L1280 175L1408 175L1408 208L1536 208L1536 172L1664 172L1664 174L1792 174L1792 192L1920 192L1920 212L1920 0L1920 0L1792 0L1792 0L1664 0L1664 0L1536 0L1536 0L1408 0L1408 0L1280 0L1280 0L1152 0L1152 0L1024 0L1024 0L896 0L896 0L768 0L768 0L640 0L640 0L512 0L512 0L384 0L384 0L256 0L256 0L128 0L128 0L0 0Z" fill="#f30089"></path><path d="M0 157L128 157L128 152L256 152L256 166L384 166L384 177L512 177L512 167L640 167L640 156L768 156L768 177L896 177L896 167L1024 167L1024 171L1152 171L1152 146L1280 146L1280 162L1408 162L1408 152L1536 152L1536 153L1664 153L1664 184L1792 184L1792 178L1920 178L1920 161L1920 0L1920 0L1792 0L1792 0L1664 0L1664 0L1536 0L1536 0L1408 0L1408 0L1280 0L1280 0L1152 0L1152 0L1024 0L1024 0L896 0L896 0L768 0L768 0L640 0L640 0L512 0L512 0L384 0L384 0L256 0L256 0L128 0L128 0L0 0Z" fill="#fc0071"></path><path d="M0 145L128 145L128 123L256 123L256 160L384 160L384 158L512 158L512 155L640 155L640 129L768 129L768 162L896 162L896 153L1024 153L1024 158L1152 158L1152 163L1280 163L1280 144L1408 144L1408 161L1536 161L1536 147L1664 147L1664 146L1792 146L1792 146L1920 146L1920 139L1920 0L1920 0L1792 0L1792 0L1664 0L1664 0L1536 0L1536 0L1408 0L1408 0L1280 0L1280 0L1152 0L1152 0L1024 0L1024 0L896 0L896 0L768 0L768 0L640 0L640 0L512 0L512 0L384 0L384 0L256 0L256 0L128 0L128 0L0 0Z" fill="#ff285c"></path><path d="M0 127L128 127L128 128L256 128L256 114L384 114L384 137L512 137L512 111L640 111L640 102L768 102L768 125L896 125L896 116L1024 116L1024 126L1152 126L1152 128L1280 128L1280 130L1408 130L1408 137L1536 137L1536 136L1664 136L1664 130L1792 130L1792 125L1920 125L1920 133L1920 0L1920 0L1792 0L1792 0L1664 0L1664 0L1536 0L1536 0L1408 0L1408 0L1280 0L1280 0L1152 0L1152 0L1024 0L1024 0L896 0L896 0L768 0L768 0L640 0L640 0L512 0L512 0L384 0L384 0L256 0L256 0L128 0L128 0L0 0Z" fill="#ff4f49"></path><path d="M0 86L128 86L128 79L256 79L256 97L384 97L384 114L512 114L512 89L640 89L640 76L768 76L768 95L896 95L896 81L1024 81L1024 91L1152 91L1152 113L1280 113L1280 99L1408 99L1408 77L1536 77L1536 77L1664 77L1664 99L1792 99L1792 86L1920 86L1920 103L1920 0L1920 0L1792 0L1792 0L1664 0L1664 0L1536 0L1536 0L1408 0L1408 0L1280 0L1280 0L1152 0L1152 0L1024 0L1024 0L896 0L896 0L768 0L768 0L640 0L640 0L512 0L512 0L384 0L384 0L256 0L256 0L128 0L128 0L0 0Z" fill="#ff7036"></path><path d="M0 56L128 56L128 62L256 62L256 74L384 74L384 87L512 87L512 80L640 80L640 68L768 68L768 62L896 62L896 58L1024 58L1024 71L1152 71L1152 66L1280 66L1280 90L1408 90L1408 67L1536 67L1536 83L1664 83L1664 60L1792 60L1792 74L1920 74L1920 77L1920 0L1920 0L1792 0L1792 0L1664 0L1664 0L1536 0L1536 0L1408 0L1408 0L1280 0L1280 0L1152 0L1152 0L1024 0L1024 0L896 0L896 0L768 0L768 0L640 0L640 0L512 0L512 0L384 0L384 0L256 0L256 0L128 0L128 0L0 0Z" fill="#ff8e23"></path><path d="M0 65L128 65L128 58L256 58L256 47L384 47L384 36L512 36L512 33L640 33L640 59L768 59L768 40L896 40L896 63L1024 63L1024 52L1152 52L1152 57L1280 57L1280 46L1408 46L1408 35L1536 35L1536 40L1664 40L1664 33L1792 33L1792 33L1920 33L1920 35L1920 0L1920 0L1792 0L1792 0L1664 0L1664 0L1536 0L1536 0L1408 0L1408 0L1280 0L1280 0L1152 0L1152 0L1024 0L1024 0L896 0L896 0L768 0L768 0L640 0L640 0L512 0L512 0L384 0L384 0L256 0L256 0L128 0L128 0L0 0Z" fill="#ffab11"></path><path d="M0 16L128 16L128 7L256 7L256 8L384 8L384 30L512 30L512 34L640 34L640 35L768 35L768 40L896 40L896 19L1024 19L1024 26L1152 26L1152 13L1280 13L1280 11L1408 11L1408 18L1536 18L1536 31L1664 31L1664 15L1792 15L1792 23L1920 23L1920 36L1920 0L1920 0L1792 0L1792 0L1664 0L1664 0L1536 0L1536 0L1408 0L1408 0L1280 0L1280 0L1152 0L1152 0L1024 0L1024 0L896 0L896 0L768 0L768 0L640 0L640 0L512 0L512 0L384 0L384 0L256 0L256 0L128 0L128 0L0 0Z" fill="#f7c714"></path></svg>