<svg id="visual" viewBox="0 0 1920 150" width="1920" height="150" xmlns="http://www.w3.org/2000/svg" xmlns:xlink="http://www.w3.org/1999/xlink" version="1.1"><path d="M0 119L128 119L128 119L256 119L256 134L384 134L384 124L512 124L512 122L640 122L640 126L768 126L768 118L896 118L896 119L1024 119L1024 133L1152 133L1152 128L1280 128L1280 134L1408 134L1408 138L1536 138L1536 140L1664 140L1664 135L1792 135L1792 129L1920 129L1920 123L1920 0L1920 0L1792 0L1792 0L1664 0L1664 0L1536 0L1536 0L1408 0L1408 0L1280 0L1280 0L1152 0L1152 0L1024 0L1024 0L896 0L896 0L768 0L768 0L640 0L640 0L512 0L512 0L384 0L384 0L256 0L256 0L128 0L128 0L0 0Z" fill="#9b0cda"></path><path d="M0 120L128 120L128 120L256 120L256 112L384 112L384 118L512 118L512 117L640 117L640 110L768 110L768 125L896 125L896 112L1024 112L1024 123L1152 123L1152 116L1280 116L1280 127L1408 127L1408 114L1536 114L1536 121L1664 121L1664 110L1792 110L1792 124L1920 124L1920 109L1920 0L1920 0L1792 0L1792 0L1664 0L1664 0L1536 0L1536 0L1408 0L1408 0L1280 0L1280 0L1152 0L1152 0L1024 0L1024 0L896 0L896 0L768 0L768 0L640 0L640 0L512 0L512 0L384 0L384 0L256 0L256 0L128 0L128 0L0 0Z" fill="#c600bf"></path><path d="M0 109L128 109L128 117L256 117L256 115L384 115L384 97L512 97L512 115L640 115L640 105L768 105L768 114L896 114L896 104L1024 104L1024 101L1152 101L1152 115L1280 115L1280 113L1408 113L1408 105L1536 105L1536 99L1664 99L1664 115L1792 115L1792 112L1920 112L1920 95L1920 0L1920 0L1792 0L1792 0L1664 0L1664 0L1536 0L1536 0L1408 0L1408 0L1280 0L1280 0L1152 0L1152 0L1024 0L1024 0L896 0L896 0L768 0L768 0L640 0L640 0L512 0L512 0L384 0L384 0L256 0L256 0L128 0L128 0L0 0Z" fill="#e100a4"></path><path d="M0 105L128 105L128 87L256 87L256 91L384 91L384 87L512 87L512 99L640 99L640 100L768 100L768 89L896 89L896 106L1024 106L1024 92L1152 92L1152 104L1280 104L1280 87L1408 87L1408 103L1536 103L1536 86L1664 86L1664 87L1792 87L1792 96L1920 96L1920 105L1920 0L1920 0L1792 0L1792 0L1664 0L1664 0L1536 0L1536 0L1408 0L1408 0L1280 0L1280 0L1152 0L1152 0L1024 0L1024 0L896 0L896 0L768 0L768 0L640 0L640 0L512 0L512 0L384 0L384 0L256 0L256 0L128 0L128 0L0 0Z" fill="#f30089"></path><path d="M0 78L128 78L128 75L256 75L256 83L384 83L384 88L512 88L512 83L640 83L640 77L768 77L768 88L896 88L896 83L1024 83L1024 85L1152 85L1152 72L1280 72L1280 81L1408 81L1408 75L1536 75L1536 76L1664 76L1664 91L1792 91L1792 88L1920 88L1920 80L1920 0L1920 0L1792 0L1792 0L1664 0L1664 0L1536 0L1536 0L1408 0L1408 0L1280 0L1280 0L1152 0L1152 0L1024 0L1024 0L896 0L896 0L768 0L768 0L640 0L640 0L512 0L512 0L384 0L384 0L256 0L256 0L128 0L128 0L0 0Z" fill="#fc0071"></path><path d="M0 72L128 72L128 61L256 61L256 80L384 80L384 79L512 79L512 77L640 77L640 64L768 64L768 80L896 80L896 76L1024 76L1024 79L1152 79L1152 81L1280 81L1280 71L1408 71L1408 80L1536 80L1536 73L1664 73L1664 73L1792 73L1792 73L1920 73L1920 69L1920 0L1920 0L1792 0L1792 0L1664 0L1664 0L1536 0L1536 0L1408 0L1408 0L1280 0L1280 0L1152 0L1152 0L1024 0L1024 0L896 0L896 0L768 0L768 0L640 0L640 0L512 0L512 0L384 0L384 0L256 0L256 0L128 0L128 0L0 0Z" fill="#ff285c"></path><path d="M0 63L128 63L128 63L256 63L256 56L384 56L384 68L512 68L512 55L640 55L640 50L768 50L768 62L896 62L896 58L1024 58L1024 63L1152 63L1152 63L1280 63L1280 65L1408 65L1408 68L1536 68L1536 68L1664 68L1664 65L1792 65L1792 62L1920 62L1920 66L1920 0L1920 0L1792 0L1792 0L1664 0L1664 0L1536 0L1536 0L1408 0L1408 0L1280 0L1280 0L1152 0L1152 0L1024 0L1024 0L896 0L896 0L768 0L768 0L640 0L640 0L512 0L512 0L384 0L384 0L256 0L256 0L128 0L128 0L0 0Z" fill="#ff4f49"></path><path d="M0 42L128 42L128 39L256 39L256 48L384 48L384 56L512 56L512 44L640 44L640 37L768 37L768 47L896 47L896 40L1024 40L1024 45L1152 45L1152 56L1280 56L1280 49L1408 49L1408 38L1536 38L1536 38L1664 38L1664 49L1792 49L1792 43L1920 43L1920 51L1920 0L1920 0L1792 0L1792 0L1664 0L1664 0L1536 0L1536 0L1408 0L1408 0L1280 0L1280 0L1152 0L1152 0L1024 0L1024 0L896 0L896 0L768 0L768 0L640 0L640 0L512 0L512 0L384 0L384 0L256 0L256 0L128 0L128 0L0 0Z" fill="#ff7036"></path><path d="M0 27L128 27L128 30L256 30L256 37L384 37L384 43L512 43L512 40L640 40L640 33L768 33L768 31L896 31L896 28L1024 28L1024 35L1152 35L1152 33L1280 33L1280 45L1408 45L1408 33L1536 33L1536 41L1664 41L1664 30L1792 30L1792 37L1920 37L1920 38L1920 0L1920 0L1792 0L1792 0L1664 0L1664 0L1536 0L1536 0L1408 0L1408 0L1280 0L1280 0L1152 0L1152 0L1024 0L1024 0L896 0L896 0L768 0L768 0L640 0L640 0L512 0L512 0L384 0L384 0L256 0L256 0L128 0L128 0L0 0Z" fill="#ff8e23"></path><path d="M0 32L128 32L128 29L256 29L256 23L384 23L384 17L512 17L512 16L640 16L640 29L768 29L768 20L896 20L896 31L1024 31L1024 26L1152 26L1152 28L1280 28L1280 23L1408 23L1408 17L1536 17L1536 20L1664 20L1664 16L1792 16L1792 16L1920 16L1920 17L1920 0L1920 0L1792 0L1792 0L1664 0L1664 0L1536 0L1536 0L1408 0L1408 0L1280 0L1280 0L1152 0L1152 0L1024 0L1024 0L896 0L896 0L768 0L768 0L640 0L640 0L512 0L512 0L384 0L384 0L256 0L256 0L128 0L128 0L0 0Z" fill="#ffab11"></path><path d="M0 7L128 7L128 3L256 3L256 3L384 3L384 14L512 14L512 16L640 16L640 17L768 17L768 20L896 20L896 9L1024 9L1024 12L1152 12L1152 6L1280 6L1280 5L1408 5L1408 9L1536 9L1536 15L1664 15L1664 7L1792 7L1792 11L1920 11L1920 17L1920 0L1920 0L1792 0L1792 0L1664 0L1664 0L1536 0L1536 0L1408 0L1408 0L1280 0L1280 0L1152 0L1152 0L1024 0L1024 0L896 0L896 0L768 0L768 0L640 0L640 0L512 0L512 0L384 0L384 0L256 0L256 0L128 0L128 0L0 0Z" fill="#f7c714"></path></svg>