<svg id="visual" viewBox="0 0 1920 300" width="1920" height="300" xmlns="http://www.w3.org/2000/svg" xmlns:xlink="http://www.w3.org/1999/xlink" version="1.1"><path d="M0 157L20 160.5C40 164 80 171 120 162.8C160 154.7 200 131.3 240 126.2C280 121 320 134 360 132.5C400 131 440 115 480 109.2C520 103.3 560 107.7 600 107.5C640 107.3 680 102.7 720 105.3C760 108 800 118 840 120.2C880 122.3 920 116.7 960 121C1000 125.3 1040 139.7 1080 141C1120 142.3 1160 130.7 1200 127.3C1240 124 1280 129 1320 132.5C1360 136 1400 138 1440 137.2C1480 136.3 1520 132.7 1560 136.3C1600 140 1640 151 1680 151.5C1720 152 1760 142 1800 132.3C1840 122.7 1880 113.3 1900 108.7L1920 104L1920 0L1900 0C1880 0 1840 0 1800 0C1760 0 1720 0 1680 0C1640 0 1600 0 1560 0C1520 0 1480 0 1440 0C1400 0 1360 0 1320 0C1280 0 1240 0 1200 0C1160 0 1120 0 1080 0C1040 0 1000 0 960 0C920 0 880 0 840 0C800 0 760 0 720 0C680 0 640 0 600 0C560 0 520 0 480 0C440 0 400 0 360 0C320 0 280 0 240 0C200 0 160 0 120 0C80 0 40 0 20 0L0 0Z" fill="#525355" stroke-linecap="round" stroke-linejoin="miter"></path></svg>