<svg id="visual" viewBox="0 0 1920 100" width="1920" height="100" xmlns="http://www.w3.org/2000/svg" xmlns:xlink="http://www.w3.org/1999/xlink" version="1.1"><path d="M0 46L10.3 45.7C20.7 45.3 41.3 44.7 62 39.3C82.7 34 103.3 24 124 23.7C144.7 23.3 165.3 32.7 186 32.8C206.7 33 227.3 24 248 24.3C268.7 24.7 289.3 34.3 310 35.8C330.7 37.3 351.3 30.7 372 35.5C392.7 40.3 413.3 56.7 433.8 59.5C454.3 62.3 474.7 51.7 495.2 48.8C515.7 46 536.3 51 557 51.2C577.7 51.3 598.3 46.7 619 41.5C639.7 36.3 660.3 30.7 681 29C701.7 27.3 722.3 29.7 743 35.3C763.7 41 784.3 50 805 52.2C825.7 54.3 846.3 49.7 867 51.8C887.7 54 908.3 63 929 62.8C949.7 62.7 970.3 53.3 991 49.7C1011.7 46 1032.3 48 1053 42.8C1073.7 37.7 1094.3 25.3 1115 23.7C1135.7 22 1156.3 31 1177 35.2C1197.7 39.3 1218.3 38.7 1239 36.7C1259.7 34.7 1280.3 31.3 1301 31.7C1321.7 32 1342.3 36 1363 37.2C1383.7 38.3 1404.3 36.7 1424.8 38.7C1445.3 40.7 1465.7 46.3 1486.2 52.5C1506.7 58.7 1527.3 65.3 1548 61.5C1568.7 57.7 1589.3 43.3 1610 35.8C1630.7 28.3 1651.3 27.7 1672 31.5C1692.7 35.3 1713.3 43.7 1734 43C1754.7 42.3 1775.3 32.7 1796 28.7C1816.7 24.7 1837.3 26.3 1858 34.7C1878.7 43 1899.3 58 1909.7 65.5L1920 73L1920 0L1909.7 0C1899.3 0 1878.7 0 1858 0C1837.3 0 1816.7 0 1796 0C1775.3 0 1754.7 0 1734 0C1713.3 0 1692.7 0 1672 0C1651.3 0 1630.7 0 1610 0C1589.3 0 1568.7 0 1548 0C1527.3 0 1506.7 0 1486.2 0C1465.7 0 1445.3 0 1424.8 0C1404.3 0 1383.7 0 1363 0C1342.3 0 1321.7 0 1301 0C1280.3 0 1259.7 0 1239 0C1218.3 0 1197.7 0 1177 0C1156.3 0 1135.7 0 1115 0C1094.3 0 1073.7 0 1053 0C1032.3 0 1011.7 0 991 0C970.3 0 949.7 0 929 0C908.3 0 887.7 0 867 0C846.3 0 825.7 0 805 0C784.3 0 763.7 0 743 0C722.3 0 701.7 0 681 0C660.3 0 639.7 0 619 0C598.3 0 577.7 0 557 0C536.3 0 515.7 0 495.2 0C474.7 0 454.3 0 433.8 0C413.3 0 392.7 0 372 0C351.3 0 330.7 0 310 0C289.3 0 268.7 0 248 0C227.3 0 206.7 0 186 0C165.3 0 144.7 0 124 0C103.3 0 82.7 0 62 0C41.3 0 20.7 0 10.3 0L0 0Z" fill="#b1b1b1" stroke-linecap="round" stroke-linejoin="miter"></path></svg>