<svg xmlns="http://www.w3.org/2000/svg" xmlns:xlink="http://www.w3.org/1999/xlink" width="500" zoomAndPan="magnify" viewBox="0 0 375 374.999991" height="500" preserveAspectRatio="xMidYMid meet" version="1.0"><path stroke-linecap="round" transform="matrix(0.222219, 0, 0, 0.222222, 202.495993, 199.836726)" fill-opacity="1" fill="#d4d4d4" fill-rule="nonzero" stroke-linejoin="round" d="M 583.531906 364.057028 C 583.531906 364.057028 -583.530997 364.057028 -583.530997 364.057028 C -583.530997 364.057028 -583.530997 -340.808264 -583.530997 -340.808264 C -583.530997 -353.657875 -573.124605 -364.046548 -560.274819 -364.046548 C -560.274819 -364.046548 560.275727 -364.046548 560.275727 -364.046548 C 573.125513 -364.046548 583.531906 -353.657875 583.531906 -340.808264 C 583.531906 -340.808264 583.531906 364.057028 583.531906 364.057028 Z M 583.531906 364.057028 " stroke="#253237" stroke-width="2" stroke-opacity="1" stroke-miterlimit="4"/><path stroke-linecap="round" transform="matrix(0.222219, 0, 0, 0.222222, 202.771983, 284.190274)" fill-opacity="1" fill="#d4d4d4" fill-rule="nonzero" stroke-linejoin="round" d="M 603.577334 33.561738 C 603.577334 33.561738 -605.462709 33.561738 -605.462709 33.561738 C -620.123066 33.561738 -631.988463 21.678924 -631.988463 7.036345 C -631.988463 7.036345 -631.988463 -33.551549 -631.988463 -33.551549 C -631.988463 -33.551549 632.001552 -33.551549 632.001552 -33.551549 C 632.001552 -33.551549 632.001552 5.137907 632.001552 5.137907 C 632.001552 20.835174 619.274815 33.561738 603.577334 33.561738 Z M 603.577334 33.561738 " stroke="#253237" stroke-width="2" stroke-opacity="1" stroke-miterlimit="4"/><path stroke-linecap="round" transform="matrix(0.222219, 0, 0, 0.222222, 204.981509, 279.702051)" fill-opacity="1" fill="#d4d4d4" fill-rule="nonzero" stroke-linejoin="round" d="M -126.779862 -13.354544 C -126.779862 -13.354544 -109.377279 13.364208 -109.377279 13.364208 C -109.377279 13.364208 113.727348 13.364208 113.727348 13.364208 C 113.727348 13.364208 126.770495 -13.354544 126.770495 -13.354544 C 126.770495 -13.354544 -126.779862 -13.354544 -126.779862 -13.354544 Z M -126.779862 -13.354544 " stroke="#253237" stroke-width="2" stroke-opacity="1" stroke-miterlimit="4"/><path stroke-linecap="round" transform="matrix(0.222219, 0, 0, 0.222222, 201.943556, 198.31761)" fill-opacity="1" fill="#ffffff" fill-rule="nonzero" stroke-linejoin="round" d="M 549.964676 319.406718 C 549.964676 319.406718 -549.966446 319.406718 -549.966446 319.406718 C -549.966446 319.406718 -549.966446 -319.399975 -549.966446 -319.399975 C -549.966446 -319.399975 549.964676 -319.399975 549.964676 -319.399975 C 549.964676 -319.399975 549.964676 319.406718 549.964676 319.406718 Z M 549.964676 319.406718 " stroke="#253237" stroke-width="2" stroke-opacity="1" stroke-miterlimit="4"/><path stroke-linecap="round" transform="matrix(0.222219, 0, 0, 0.222222, 205.580396, 190.477838)" fill="none" stroke-linejoin="round" d="M 0.991748 0.996214 C 0.991748 0.996214 493.221165 0.996214 493.221165 0.996214 " stroke="#253237" stroke-width="2" stroke-opacity="1" stroke-miterlimit="4"/><path stroke-linecap="round" transform="matrix(0.222219, 0, 0, 0.222222, 205.580396, 190.477838)" fill="none" stroke-linejoin="round" d="M 0.991748 37.71692 C 0.991748 37.71692 493.221165 37.71692 493.221165 37.71692 " stroke="#253237" stroke-width="2" stroke-opacity="1" stroke-miterlimit="4"/><path stroke-linecap="round" transform="matrix(0.222219, 0, 0, 0.222222, 205.580396, 190.477838)" fill="none" stroke-linejoin="round" d="M 0.991748 74.437626 C 0.991748 74.437626 493.221165 74.437626 493.221165 74.437626 " stroke="#253237" stroke-width="2" stroke-opacity="1" stroke-miterlimit="4"/><path stroke-linecap="round" transform="matrix(0.222219, 0, 0, 0.222222, 205.580396, 190.477838)" fill="none" stroke-linejoin="round" d="M 0.991748 111.158332 C 0.991748 111.158332 493.221165 111.158332 493.221165 111.158332 " stroke="#253237" stroke-width="2" stroke-opacity="1" stroke-miterlimit="4"/><path stroke-linecap="round" transform="matrix(0.222219, 0, 0, 0.222222, 260.492068, 158.66829)" fill-opacity="1" fill="#ffffff" fill-rule="nonzero" stroke-linejoin="round" d="M 246.115245 102.742702 C 246.115245 102.742702 -246.114171 102.742702 -246.114171 102.742702 C -246.114171 102.742702 -246.114171 -102.745596 -246.114171 -102.745596 C -246.114171 -102.745596 246.115245 -102.745596 246.115245 -102.745596 C 246.115245 -102.745596 246.115245 102.742702 246.115245 102.742702 Z M 246.115245 102.742702 " stroke="#253237" stroke-width="2" stroke-opacity="1" stroke-miterlimit="4"/><path stroke-linecap="round" transform="matrix(0.222219, 0, 0, 0.222222, 260.492301, 167.46428)" fill-opacity="1" fill="#f6de7f" fill-rule="nonzero" stroke-linejoin="round" d="M -246.115219 63.160744 C -246.115219 63.160744 -58.659519 -63.173251 -58.659519 -63.173251 C -58.659519 -63.173251 43.066487 12.307224 43.066487 12.307224 C 43.066487 12.307224 121.008964 -30.354888 121.008964 -30.354888 C 121.008964 -30.354888 246.114198 63.160744 246.114198 63.160744 C 246.114198 63.160744 -246.115219 63.160744 -246.115219 63.160744 Z M -246.115219 63.160744 " stroke="#253237" stroke-width="2" stroke-opacity="1" stroke-miterlimit="4"/><path stroke-linecap="round" transform="matrix(0.222219, 0, 0, 0.222222, 271.612369, 152.014281)" fill-opacity="1" fill="#f6de7f" fill-rule="nonzero" stroke-linejoin="round" d="M 29.940063 0.00604702 C 29.940063 16.529486 16.545348 29.941596 0.00410489 29.941596 C -16.537138 29.941596 -29.949431 16.529486 -29.949431 0.00604702 C -29.949431 -16.53497 -16.537138 -29.94708 0.00410489 -29.94708 C 16.545348 -29.94708 29.940063 -16.53497 29.940063 0.00604702 Z M 29.940063 0.00604702 " stroke="#253237" stroke-width="2" stroke-opacity="1" stroke-miterlimit="4"/><path stroke-linecap="round" transform="matrix(0.222219, 0, 0, 0.222222, 269.245036, 230.200502)" fill="none" stroke-linejoin="round" d="M 1.006729 0.99618 C 1.006729 0.99618 206.726351 0.99618 206.726351 0.99618 " stroke="#253237" stroke-width="2" stroke-opacity="1" stroke-miterlimit="4"/><path stroke-linecap="round" transform="matrix(0.222219, 0, 0, 0.222222, 269.245036, 230.200502)" fill="none" stroke-linejoin="round" d="M 1.006729 37.716886 C 1.006729 37.716886 206.726351 37.716886 206.726351 37.716886 " stroke="#253237" stroke-width="2" stroke-opacity="1" stroke-miterlimit="4"/><path stroke-linecap="round" transform="matrix(0.222219, 0, 0, 0.222222, 269.245036, 230.200502)" fill="none" stroke-linejoin="round" d="M 1.006729 74.437592 C 1.006729 74.437592 206.726351 74.437592 206.726351 74.437592 " stroke="#253237" stroke-width="2" stroke-opacity="1" stroke-miterlimit="4"/><path stroke-linecap="round" transform="matrix(0.222219, 0, 0, 0.222222, 269.245036, 230.200502)" fill="none" stroke-linejoin="round" d="M 1.006729 111.158299 C 1.006729 111.158299 206.726351 111.158299 206.726351 111.158299 " stroke="#253237" stroke-width="2" stroke-opacity="1" stroke-miterlimit="4"/><path stroke-linecap="round" transform="matrix(0.222219, 0, 0, 0.222222, 138.527969, 198.317829)" fill-opacity="1" fill="#253237" fill-rule="nonzero" stroke-linejoin="round" d="M 264.586758 319.405735 C 264.586758 319.405735 -264.592385 319.405735 -264.592385 319.405735 C -264.592385 319.405735 -264.592385 -319.400958 -264.592385 -319.400958 C -264.592385 -319.400958 264.586758 -319.400958 264.586758 -319.400958 C 264.586758 -319.400958 264.586758 319.405735 264.586758 319.405735 Z M 264.586758 319.405735 " stroke="#253237" stroke-width="2" stroke-opacity="1" stroke-miterlimit="4"/><path stroke-linecap="round" transform="matrix(0.222219, 0, 0, 0.222222, 79.415889, 127.025836)" fill="none" stroke-linejoin="round" d="M 51.513973 112.454061 C 51.513973 112.454061 476.453403 112.454061 476.453403 112.454061 " stroke="#ffffff" stroke-width="2" stroke-opacity="1" stroke-miterlimit="4"/><path stroke-linecap="round" transform="matrix(0.222219, 0, 0, 0.222222, 79.415889, 127.025836)" fill="none" stroke-linejoin="round" d="M 174.562538 183.135708 C 174.562538 183.135708 251.063589 183.135708 251.063589 183.135708 " stroke="#ffffff" stroke-width="2" stroke-opacity="1" stroke-miterlimit="4"/><path stroke-linecap="round" transform="matrix(0.222219, 0, 0, 0.222222, 79.415889, 127.025836)" fill="none" stroke-linejoin="round" d="M 269.942754 183.135708 C 269.942754 183.135708 476.453403 183.135708 476.453403 183.135708 " stroke="#ffffff" stroke-width="2" stroke-opacity="1" stroke-miterlimit="4"/><path stroke-linecap="round" transform="matrix(0.222219, 0, 0, 0.222222, 79.415889, 127.025836)" fill="none" stroke-linejoin="round" d="M 51.513973 183.135708 C 51.513973 183.135708 159.392408 183.135708 159.392408 183.135708 " stroke="#ffffff" stroke-width="2" stroke-opacity="1" stroke-miterlimit="4"/><path stroke-linecap="round" transform="matrix(0.222219, 0, 0, 0.222222, 79.415889, 127.025836)" fill="none" stroke-linejoin="round" d="M 51.513973 147.786096 C 51.513973 147.786096 222.147176 147.786096 222.147176 147.786096 " stroke="#f6de7f" stroke-width="2" stroke-opacity="1" stroke-miterlimit="4"/><path stroke-linecap="round" transform="matrix(0.222219, 0, 0, 0.222222, 79.415889, 127.025836)" fill="none" stroke-linejoin="round" d="M 476.453403 147.786096 C 476.453403 147.786096 238.213803 147.786096 238.213803 147.786096 " stroke="#f6de7f" stroke-width="2" stroke-opacity="1" stroke-miterlimit="4"/><path stroke-linecap="round" transform="matrix(0.222219, 0, 0, 0.222222, 79.415889, 127.025836)" fill="none" stroke-linejoin="round" d="M 51.513973 216.692351 C 51.513973 216.692351 427.233977 216.692351 427.233977 216.692351 " stroke="#f6de7f" stroke-width="2" stroke-opacity="1" stroke-miterlimit="4"/><path stroke-linecap="round" transform="matrix(0.222219, 0, 0, 0.222222, 79.415889, 127.025836)" fill="none" stroke-linejoin="round" d="M 160.306483 287.373998 C 160.306483 287.373998 227.948037 287.373998 227.948037 287.373998 " stroke="#f6de7f" stroke-width="2" stroke-opacity="1" stroke-miterlimit="4"/><path stroke-linecap="round" transform="matrix(0.222219, 0, 0, 0.222222, 79.415889, 127.025836)" fill="none" stroke-linejoin="round" d="M 244.629907 287.373998 C 244.629907 287.373998 427.233977 287.373998 427.233977 287.373998 " stroke="#f6de7f" stroke-width="2" stroke-opacity="1" stroke-miterlimit="4"/><path stroke-linecap="round" transform="matrix(0.222219, 0, 0, 0.222222, 79.415889, 127.025836)" fill="none" stroke-linejoin="round" d="M 51.513973 287.373998 C 51.513973 287.373998 146.894189 287.373998 146.894189 287.373998 " stroke="#f6de7f" stroke-width="2" stroke-opacity="1" stroke-miterlimit="4"/><path stroke-linecap="round" transform="matrix(0.222219, 0, 0, 0.222222, 79.415889, 127.025836)" fill="none" stroke-linejoin="round" d="M 51.513973 252.041964 C 51.513973 252.041964 202.389092 252.041964 202.389092 252.041964 " stroke="#ffffff" stroke-width="2" stroke-opacity="1" stroke-miterlimit="4"/><path stroke-linecap="round" transform="matrix(0.222219, 0, 0, 0.222222, 79.415889, 127.025836)" fill="none" stroke-linejoin="round" d="M 427.233977 252.041964 C 427.233977 252.041964 216.592412 252.041964 216.592412 252.041964 " stroke="#ffffff" stroke-width="2" stroke-opacity="1" stroke-miterlimit="4"/><path stroke-linecap="round" transform="matrix(0.222219, 0, 0, 0.222222, 79.415889, 127.025836)" fill="none" stroke-linejoin="round" d="M 51.513973 385.055646 C 51.513973 385.055646 476.453403 385.055646 476.453403 385.055646 " stroke="#ffffff" stroke-width="2" stroke-opacity="1" stroke-miterlimit="4"/><path stroke-linecap="round" transform="matrix(0.222219, 0, 0, 0.222222, 79.415889, 127.025836)" fill="none" stroke-linejoin="round" d="M 174.562538 455.737293 C 174.562538 455.737293 251.063589 455.737293 251.063589 455.737293 " stroke="#ffffff" stroke-width="2" stroke-opacity="1" stroke-miterlimit="4"/><path stroke-linecap="round" transform="matrix(0.222219, 0, 0, 0.222222, 79.415889, 127.025836)" fill="none" stroke-linejoin="round" d="M 269.942754 455.737293 C 269.942754 455.737293 476.453403 455.737293 476.453403 455.737293 " stroke="#ffffff" stroke-width="2" stroke-opacity="1" stroke-miterlimit="4"/><path stroke-linecap="round" transform="matrix(0.222219, 0, 0, 0.222222, 79.415889, 127.025836)" fill="none" stroke-linejoin="round" d="M 51.513973 455.737293 C 51.513973 455.737293 159.392408 455.737293 159.392408 455.737293 " stroke="#ffffff" stroke-width="2" stroke-opacity="1" stroke-miterlimit="4"/><path stroke-linecap="round" transform="matrix(0.222219, 0, 0, 0.222222, 79.415889, 127.025836)" fill="none" stroke-linejoin="round" d="M 51.513973 420.387681 C 51.513973 420.387681 222.147176 420.387681 222.147176 420.387681 " stroke="#f6de7f" stroke-width="2" stroke-opacity="1" stroke-miterlimit="4"/><path stroke-linecap="round" transform="matrix(0.222219, 0, 0, 0.222222, 79.415889, 127.025836)" fill="none" stroke-linejoin="round" d="M 476.453403 420.387681 C 476.453403 420.387681 238.213803 420.387681 238.213803 420.387681 " stroke="#f6de7f" stroke-width="2" stroke-opacity="1" stroke-miterlimit="4"/><path stroke-linecap="round" transform="matrix(0.222219, 0, 0, 0.222222, 79.415889, 127.025836)" fill="none" stroke-linejoin="round" d="M 51.513973 489.311514 C 51.513973 489.311514 427.233977 489.311514 427.233977 489.311514 " stroke="#f6de7f" stroke-width="2" stroke-opacity="1" stroke-miterlimit="4"/><path stroke-linecap="round" transform="matrix(0.222219, 0, 0, 0.222222, 79.415889, 127.025836)" fill="none" stroke-linejoin="round" d="M 160.306483 559.993161 C 160.306483 559.993161 227.948037 559.993161 227.948037 559.993161 " stroke="#f6de7f" stroke-width="2" stroke-opacity="1" stroke-miterlimit="4"/><path stroke-linecap="round" transform="matrix(0.222219, 0, 0, 0.222222, 79.415889, 127.025836)" fill="none" stroke-linejoin="round" d="M 244.629907 559.993161 C 244.629907 559.993161 427.233977 559.993161 427.233977 559.993161 " stroke="#f6de7f" stroke-width="2" stroke-opacity="1" stroke-miterlimit="4"/><path stroke-linecap="round" transform="matrix(0.222219, 0, 0, 0.222222, 79.415889, 127.025836)" fill="none" stroke-linejoin="round" d="M 51.513973 559.993161 C 51.513973 559.993161 146.894189 559.993161 146.894189 559.993161 " stroke="#f6de7f" stroke-width="2" stroke-opacity="1" stroke-miterlimit="4"/><path stroke-linecap="round" transform="matrix(0.222219, 0, 0, 0.222222, 79.415889, 127.025836)" fill="none" stroke-linejoin="round" d="M 51.513973 524.643549 C 51.513973 524.643549 202.389092 524.643549 202.389092 524.643549 " stroke="#ffffff" stroke-width="2" stroke-opacity="1" stroke-miterlimit="4"/><path stroke-linecap="round" transform="matrix(0.222219, 0, 0, 0.222222, 79.415889, 127.025836)" fill="none" stroke-linejoin="round" d="M 427.233977 524.643549 C 427.233977 524.643549 216.592412 524.643549 216.592412 524.643549 " stroke="#ffffff" stroke-width="2" stroke-opacity="1" stroke-miterlimit="4"/><path stroke-linecap="round" transform="matrix(0.222219, 0, 0, 0.222222, 94.293682, 142.870275)" fill="none" stroke-linejoin="round" d="M 15.430595 17.827906 C 15.430595 17.827906 -15.437017 0.00368609 -15.437017 0.00368609 C -15.437017 0.00368609 15.430595 -17.820534 15.430595 -17.820534 " stroke="#ffffff" stroke-width="2" stroke-opacity="1" stroke-miterlimit="4"/><path stroke-linecap="round" transform="matrix(0.222219, 0, 0, 0.222222, 108.325721, 142.870275)" fill="none" stroke-linejoin="round" d="M -15.440564 17.827906 C -15.440564 17.827906 15.444626 0.00368609 15.444626 0.00368609 C 15.444626 0.00368609 -15.440564 -17.820534 -15.440564 -17.820534 " stroke="#ffffff" stroke-width="2" stroke-opacity="1" stroke-miterlimit="4"/><path stroke-linecap="round" transform="matrix(0.222219, 0, 0, 0.222222, 101.155815, 142.870275)" fill="none" stroke-linejoin="round" d="M -7.591895 17.827906 C -7.591895 17.827906 7.595813 -17.820534 7.595813 -17.820534 " stroke="#ffffff" stroke-width="2" stroke-opacity="1" stroke-miterlimit="4"/><path stroke-linecap="butt" transform="matrix(0.222219, 0, 0, 0.222222, 329.683137, 249.832191)" fill-opacity="1" fill="#253237" fill-rule="nonzero" stroke-linejoin="miter" d="M 102.06205 88.346946 C 102.06205 88.346946 -102.057941 88.346946 -102.057941 88.346946 C -111.515102 88.346946 -119.17927 80.682882 -119.17927 71.243429 C -119.17927 71.243429 -119.17927 -71.244864 -119.17927 -71.244864 C -119.17927 -80.684318 -111.515102 -88.348382 -102.057941 -88.348382 C -102.057941 -88.348382 102.06205 -88.348382 102.06205 -88.348382 C 111.519211 -88.348382 119.1658 -80.684318 119.1658 -71.244864 C 119.1658 -71.244864 119.1658 71.243429 119.1658 71.243429 C 119.1658 80.682882 111.519211 88.346946 102.06205 88.346946 Z M 102.06205 88.346946 " stroke="#253237" stroke-width="2" stroke-opacity="1" stroke-miterlimit="10"/><path stroke-linecap="butt" transform="matrix(0.222219, 0, 0, 0.222222, 325.678519, 245.827513)" fill-opacity="1" fill="#f6de7f" fill-rule="nonzero" stroke-linejoin="miter" d="M 102.065253 88.350419 C 102.065253 88.350419 -102.072316 88.350419 -102.072316 88.350419 C -111.511899 88.350419 -119.176067 80.686356 -119.176067 71.229324 C -119.176067 71.229324 -119.176067 -71.241391 -119.176067 -71.241391 C -119.176067 -80.680845 -111.511899 -88.344908 -102.072316 -88.344908 C -102.072316 -88.344908 102.065253 -88.344908 102.065253 -88.344908 C 111.522414 -88.344908 119.169004 -80.680845 119.169004 -71.241391 C 119.169004 -71.241391 119.169004 71.229324 119.169004 71.229324 C 119.169004 80.686356 111.522414 88.350419 102.065253 88.350419 Z M 102.065253 88.350419 " stroke="#253237" stroke-width="2" stroke-opacity="1" stroke-miterlimit="10"/><path stroke-linecap="round" transform="matrix(0.222219, 0, 0, 0.222222, 325.678723, 245.827309)" fill-opacity="1" fill="#ffffff" fill-rule="nonzero" stroke-linejoin="round" d="M 57.063717 0.00367354 C 57.063717 31.503676 31.504772 57.062272 0.0043398 57.062272 C -31.513671 57.062272 -57.055038 31.503676 -57.055038 0.00367354 C -57.055038 -31.513907 -31.513671 -57.054925 0.0043398 -57.054925 C 31.504772 -57.054925 57.063717 -31.513907 57.063717 0.00367354 Z M 57.063717 0.00367354 " stroke="#253237" stroke-width="2" stroke-opacity="1" stroke-miterlimit="4"/><path stroke-linecap="round" transform="matrix(0.222219, 0, 0, 0.222222, 325.641838, 245.827513)" fill="none" stroke-linejoin="round" d="M 0.609786 -57.055843 C 40.4951 -57.055843 40.4951 57.061354 0.609786 57.061354 C -40.488434 57.061354 -40.488434 -57.055843 0.609786 -57.055843 Z M 0.609786 -57.055843 " stroke="#253237" stroke-width="2" stroke-opacity="1" stroke-miterlimit="4"/><path stroke-linecap="round" transform="matrix(0.222219, 0, 0, 0.222222, 298.085111, 225.084405)" fill="none" stroke-linejoin="round" d="M 124.616757 36.288148 C 124.616757 36.288148 124.616757 150.405345 124.616757 150.405345 " stroke="#253237" stroke-width="2" stroke-opacity="1" stroke-miterlimit="4"/><path stroke-linecap="round" transform="matrix(0.222219, 0, 0, 0.222222, 298.085111, 225.084405)" fill="none" stroke-linejoin="round" d="M 67.117921 93.346747 C 67.117921 93.346747 181.219097 93.346747 181.219097 93.346747 " stroke="#253237" stroke-width="2" stroke-opacity="1" stroke-miterlimit="4"/><path stroke-linecap="round" transform="matrix(0.222219, 0, 0, 0.222222, 234.195764, 240.861327)" fill-opacity="1" fill="#ffffff" fill-rule="nonzero" stroke-linejoin="round" d="M 127.775112 83.258799 C 127.775112 83.258799 -127.7616 83.258799 -127.7616 83.258799 C -127.7616 83.258799 -127.7616 -83.258793 -127.7616 -83.258793 C -127.7616 -83.258793 127.775112 -83.258793 127.775112 -83.258793 C 127.775112 -83.258793 127.775112 83.258799 127.775112 83.258799 Z M 127.775112 83.258799 " stroke="#253237" stroke-width="2" stroke-opacity="1" stroke-miterlimit="4"/><path stroke-linecap="round" transform="matrix(0.222219, 0, 0, 0.222222, 234.195764, 246.634232)" fill-opacity="1" fill="#f6de7f" fill-rule="nonzero" stroke-linejoin="round" d="M -127.7616 57.280727 C -127.7616 53.729946 -27.547333 -57.293501 -27.547333 -57.293501 C -27.547333 -57.293501 36.43792 11.630333 36.43792 11.630333 C 36.43792 11.630333 74.723602 -17.918498 74.723602 -17.918498 C 74.723602 -17.918498 127.775112 57.280727 127.775112 57.280727 C 127.775112 57.280727 -127.7616 57.280727 -127.7616 57.280727 Z M -127.7616 57.280727 " stroke="#253237" stroke-width="2" stroke-opacity="1" stroke-miterlimit="4"/><path stroke-linecap="round" transform="matrix(0.222219, 0, 0, 0.222222, 241.442113, 235.361997)" fill-opacity="1" fill="#f6de7f" fill-rule="nonzero" stroke-linejoin="round" d="M 19.684592 0.00578117 C 19.684592 10.869063 10.87783 19.693283 -0.00317882 19.693283 C -10.866609 19.693283 -19.690949 10.869063 -19.690949 0.00578117 C -19.690949 -10.875079 -10.866609 -19.68172 -0.00317882 -19.68172 C 10.87783 -19.68172 19.684592 -10.875079 19.684592 0.00578117 Z M 19.684592 0.00578117 " stroke="#253237" stroke-width="2" stroke-opacity="1" stroke-miterlimit="4"/><path stroke-linecap="round" transform="matrix(-0.258841, 0, 0, 0.258844, 90.233127, 231.6277)" fill-opacity="1" fill="#ffffff" fill-rule="nonzero" stroke-linejoin="round" d="M 48.634492 -42.507 C 48.634492 -42.507 -2.389248 79.157538 -2.389248 79.157538 C -13.737918 106.095172 -56.808535 87.668925 -45.444773 60.731292 C -26.278802 -1.957184 -5.452785 -56.813373 16.550354 -106.085851 C 36.274704 -85.803398 56.798895 -84.264105 48.634492 -42.507 Z M 48.634492 -42.507 " stroke="#253237" stroke-width="2" stroke-opacity="1" stroke-miterlimit="4"/><path stroke-linecap="round" transform="matrix(-0.258841, 0, 0, 0.258844, 25.901584, 232.232637)" fill-opacity="1" fill="#ffffff" fill-rule="nonzero" stroke-linejoin="round" d="M -45.47307 -41.448567 C -45.47307 -41.448567 -2.508093 83.143647 -2.508093 83.143647 C 8.357655 111.650756 52.711034 93.224509 41.845286 64.7174 C 23.962076 -1.472213 4.192452 -59.467354 -16.935391 -111.652416 C -37.565221 -90.781409 -52.701811 -85.454247 -45.47307 -41.448567 Z M -45.47307 -41.448567 " stroke="#253237" stroke-width="2" stroke-opacity="1" stroke-miterlimit="4"/><path stroke-linecap="round" transform="matrix(-0.258841, 0, 0, 0.258844, 57.945301, 230.787232)" fill-opacity="1" fill="#f6de7f" fill-rule="nonzero" stroke-linejoin="round" d="M -106.922022 -102.838851 C -86.910936 -115.138107 -67.322408 -125.852796 -48.578993 -133.413442 C -48.578993 -133.413442 39.418473 -140.566629 39.418473 -140.566629 C 62.764739 -131.708147 85.431896 -120.918002 106.92193 -106.732358 C 106.92193 -106.732358 61.919625 132.205206 61.919625 132.205206 C 2.882396 140.067674 -44.398698 140.580772 -74.264413 130.213179 C -74.264413 130.213179 -106.922022 -102.838851 -106.922022 -102.838851 Z M -106.922022 -102.838851 " stroke="#253237" stroke-width="2" stroke-opacity="1" stroke-miterlimit="4"/><path fill="#d4d4d4" d="M 50.640625 180.757812 C 50.640625 180.757812 51.375 191.332031 51.375 191.332031 C 51.375 191.332031 61.886719 204.167969 61.886719 204.167969 C 61.886719 204.167969 65.984375 196.511719 65.984375 196.511719 C 65.984375 196.511719 65.984375 186.308594 65.984375 186.308594 C 65.984375 186.308594 50.640625 180.757812 50.640625 180.757812 Z M 50.640625 180.757812 " fill-opacity="1" fill-rule="nonzero"/><path stroke-linecap="round" transform="matrix(-0.258841, 0, 0, 0.258844, 53.320083, 197.389571)" fill-opacity="1" fill="#ffffff" fill-rule="nonzero" stroke-linejoin="round" d="M -33.096142 26.18715 C -33.096142 26.18715 -12.089029 14.536812 -12.089029 14.536812 C -12.089029 14.536812 -0.347985 31.257763 -0.347985 31.257763 C -0.347985 31.257763 33.109463 -13.532655 33.109463 -13.532655 C 33.109463 -13.532655 16.56938 -31.264711 16.56938 -31.264711 C 16.56938 -31.264711 8.057878 -31.264711 8.057878 -31.264711 C 8.057878 -31.264711 7.51459 -23.402242 7.51459 -23.402242 C 7.51459 -23.402242 -33.096142 26.18715 -33.096142 26.18715 Z M -33.096142 26.18715 " stroke="#253237" stroke-width="2" stroke-opacity="1" stroke-miterlimit="4"/><path stroke-linecap="round" transform="matrix(-0.258841, 0, 0, 0.258844, 66.204403, 199.399499)" fill-opacity="1" fill="#ffffff" fill-rule="nonzero" stroke-linejoin="round" d="M 16.680843 18.422146 C 16.680843 18.422146 2.072449 9.156204 2.072449 9.156204 C 2.072449 9.156204 -14.090351 25.484786 -14.090351 25.484786 C -14.090351 25.484786 -16.670966 -12.152445 -16.670966 -12.152445 C -16.670966 -12.152445 0.850052 -25.492987 0.850052 -25.492987 C 0.850052 -25.492987 0.850052 -11.156432 0.850052 -11.156432 C 0.850052 -11.156432 16.680843 18.422146 16.680843 18.422146 Z M 16.680843 18.422146 " stroke="#253237" stroke-width="2" stroke-opacity="1" stroke-miterlimit="4"/><path stroke-linecap="round" transform="matrix(-0.258841, 0, 0, 0.258844, 61.0589, 209.552681)" fill-opacity="1" fill="#ffffff" fill-rule="nonzero" stroke-linejoin="round" d="M -17.806571 -30.068835 C -17.806571 -30.068835 -1.40231 32.453639 -1.40231 32.453639 C -1.40231 32.453639 17.808935 -32.45323 17.808935 -32.45323 C 17.808935 -32.45323 -3.198177 -20.802892 -3.198177 -20.802892 C -3.198177 -20.802892 -17.806571 -30.068835 -17.806571 -30.068835 Z M -17.806571 -30.068835 " stroke="#253237" stroke-width="2" stroke-opacity="1" stroke-miterlimit="4"/><path stroke-linecap="round" transform="matrix(-0.258841, 0, 0, 0.258844, 64.842387, 213.760196)" fill-opacity="1" fill="#ffffff" fill-rule="nonzero" stroke-linejoin="round" d="M -10.101358 -34.024571 C -10.101358 -34.024571 10.105915 34.021249 10.105915 34.021249 " stroke="#253237" stroke-width="2" stroke-opacity="1" stroke-miterlimit="4"/><path stroke-linecap="round" transform="matrix(-0.258841, 0, 0, 0.258844, 57.055933, 212.676401)" fill-opacity="1" fill="#ffffff" fill-rule="nonzero" stroke-linejoin="round" d="M 7.882478 -25.808195 C 7.882478 -25.808195 -7.887948 25.803405 -7.887948 25.803405 " stroke="#253237" stroke-width="2" stroke-opacity="1" stroke-miterlimit="4"/><path stroke-linecap="round" transform="matrix(-0.258841, 0, 0, 0.258844, 64.615906, 261.885333)" fill="none" stroke-linejoin="round" d="M -43.649038 -3.752334 C -16.454486 3.687584 12.867941 3.747948 43.654227 -1.262301 " stroke="#253237" stroke-width="2" stroke-opacity="1" stroke-miterlimit="4"/><path stroke-linecap="round" transform="matrix(-0.258841, 0, 0, 0.258844, 58.313379, 192.461707)" fill="none" stroke-linejoin="round" d="M 29.642741 -45.21594 C 29.642741 -45.21594 26.805574 -4.364302 26.805574 -4.364302 C 26.805574 -4.364302 -13.805158 45.225089 -13.805158 45.225089 C -13.805158 45.225089 -29.635949 15.646511 -29.635949 15.646511 C -29.635949 15.646511 -29.635949 -23.771471 -29.635949 -23.771471 C -29.635949 -23.771471 29.642741 -45.21594 29.642741 -45.21594 Z M 29.642741 -45.21594 " stroke="#253237" stroke-width="2" stroke-opacity="1" stroke-miterlimit="4"/><path fill="#253237" d="M 65.957031 187.488281 C 65.957031 187.488281 65.957031 191.105469 65.957031 191.105469 C 58.105469 191.257812 53.898438 187.9375 50.960938 182.535156 C 55.933594 186.058594 60.773438 187.570312 65.957031 187.488281 Z M 65.957031 187.488281 " fill-opacity="1" fill-rule="nonzero"/><path stroke-linecap="round" transform="matrix(-0.258841, 0, 0, 0.258844, 75.842556, 161.905873)" fill-opacity="1" fill="#253237" fill-rule="nonzero" stroke-linejoin="round" d="M -4.018905 -23.691589 C -6.82589 -4.888065 -3.128517 9.735222 1.564882 23.6945 C 1.564882 23.6945 6.831752 -23.103036 6.831752 -23.103036 C 6.831752 -23.103036 -4.018905 -23.691589 -4.018905 -23.691589 Z M -4.018905 -23.691589 " stroke="#253237" stroke-width="2" stroke-opacity="1" stroke-miterlimit="4"/><path stroke-linecap="round" transform="matrix(-0.258841, 0, 0, 0.258844, 62.716217, 168.164461)" fill-opacity="1" fill="#d4d4d4" fill-rule="nonzero" stroke-linejoin="round" d="M 49.187906 -10.535135 C 49.187906 -10.535135 48.750258 19.179263 48.750258 19.179263 C 48.750258 19.179263 46.199825 54.869741 46.199825 54.869741 C 22.612098 71.439781 -2.348939 79.830439 -29.784952 73.371443 C -35.655474 71.983061 -40.363965 67.606639 -42.220197 61.872016 C -50.369508 36.549132 -51.290078 1.47739 -45.178095 -43.086662 C -24.125709 -79.833517 22.461185 -77.584942 51.285599 -47.281991 C 51.285599 -47.281991 49.187906 -10.535135 49.187906 -10.535135 Z M 49.187906 -10.535135 " stroke="#253237" stroke-width="2" stroke-opacity="1" stroke-miterlimit="4"/><path stroke-linecap="round" transform="matrix(-0.258841, 0, 0, 0.258844, 47.230017, 168.194243)" fill-opacity="1" fill="#d4d4d4" fill-rule="nonzero" stroke-linejoin="round" d="M -10.641125 -10.650191 C -4.861151 -20.217955 11.165827 -13.940053 6.291332 2.086707 C 1.084828 15.487614 -4.951699 18.928387 -11.169321 20.211131 C -11.169321 20.211131 -10.641125 -10.650191 -10.641125 -10.650191 Z M -10.641125 -10.650191 " stroke="#253237" stroke-width="2" stroke-opacity="1" stroke-miterlimit="4"/><path stroke-linecap="round" transform="matrix(-0.258841, 0, 0, 0.258844, 61.557123, 152.405762)" fill-opacity="1" fill="#253237" fill-rule="nonzero" stroke-linejoin="round" d="M 44.287331 50.345832 C 35.715463 45.048852 29.980763 33.247603 27.596335 13.840434 C 12.852119 19.861788 1.563814 16.873748 -6.721318 5.993056 C -17.224875 15.802279 -31.139068 19.590148 -47.407507 19.167597 C -60.9746 20.450341 -66.498022 13.855525 -64.626699 0.0320676 C -58.695812 -27.448846 -41.989725 -29.969061 -21.571174 -23.826979 C -13.180402 -50.342062 19.809216 -45.784546 21.801269 -23.826979 C 42.702743 -28.248675 54.202326 -23.751524 48.361986 -2.805061 C 61.913988 -1.477044 66.486657 5.842145 62.517641 18.850683 C 62.517641 18.850683 57.401685 47.206881 57.401685 47.206881 C 52.949746 46.165594 48.588356 47.433248 44.287331 50.345832 Z M 44.287331 50.345832 " stroke="#253237" stroke-width="2" stroke-opacity="1" stroke-miterlimit="4"/><path stroke-linecap="round" transform="matrix(-0.258841, 0, 0, 0.258844, 69.657547, 170.493037)" fill="none" stroke-linejoin="round" d="M 2.238526 -22.519219 C 1.438686 -5.903906 -2.153047 8.176101 -8.506491 19.735892 C -2.379417 21.939195 3.264736 22.527748 8.516514 21.833557 " stroke="#253237" stroke-width="2" stroke-opacity="1" stroke-miterlimit="4"/><path stroke-linecap="round" transform="matrix(-0.258841, 0, 0, 0.258844, 59.40175, 161.315701)" fill="none" stroke-linejoin="round" d="M -8.211969 -2.879679 C -0.953046 -3.98133 4.525102 -1.687481 8.207383 3.986776 " stroke="#253237" stroke-width="2" stroke-opacity="1" stroke-miterlimit="4"/><path stroke-linecap="round" transform="matrix(-0.258841, 0, 0, 0.258844, 72.137769, 161.045219)" fill="none" stroke-linejoin="round" d="M -6.500298 2.2097 C -3.1953 -0.64252 0.803899 -2.211996 6.493325 -0.672702 " stroke="#253237" stroke-width="2" stroke-opacity="1" stroke-miterlimit="4"/><path stroke-linecap="round" transform="matrix(-0.258841, 0, 0, 0.258844, 60.664381, 168.463964)" fill-opacity="1" fill="#253237" fill-rule="nonzero" stroke-linejoin="round" d="M 3.33641 0.00339823 C 3.33641 3.655447 1.842369 6.613305 0.00122862 6.613305 C -1.839912 6.613305 -3.333952 3.655447 -3.333952 0.00339823 C -3.333952 -3.648651 -1.839912 -6.6216 0.00122862 -6.6216 C 1.842369 -6.6216 3.33641 -3.648651 3.33641 0.00339823 Z M 3.33641 0.00339823 " stroke="#253237" stroke-width="2" stroke-opacity="1" stroke-miterlimit="4"/><path stroke-linecap="round" transform="matrix(-0.258841, 0, 0, 0.258844, 72.511267, 167.447216)" fill-opacity="1" fill="#253237" fill-rule="nonzero" stroke-linejoin="round" d="M 2.639235 -0.00735463 C 2.639235 2.965594 1.462112 5.380172 -0.00174552 5.380172 C -1.450512 5.380172 -2.642726 2.965594 -2.642726 -0.00735463 C -2.642726 -2.965212 -1.450512 -5.37979 -0.00174552 -5.37979 C 1.462112 -5.37979 2.639235 -2.965212 2.639235 -0.00735463 Z M 2.639235 -0.00735463 " stroke="#253237" stroke-width="2" stroke-opacity="1" stroke-miterlimit="4"/><path stroke-linecap="round" transform="matrix(-0.258841, 0, 0, 0.258844, 62.230628, 180.32161)" fill-opacity="1" fill="#253237" fill-rule="nonzero" stroke-linejoin="round" d="M -12.585544 1.685193 C 0.00061375 11.871693 11.560562 5.563608 12.57168 -11.866625 C 5.946592 -5.120898 -2.444179 -0.608656 -12.585544 1.685193 Z M -12.585544 1.685193 " stroke="#253237" stroke-width="2" stroke-opacity="1" stroke-miterlimit="4"/><path stroke-linecap="round" transform="matrix(-0.258841, 0, 0, 0.258844, 60.688645, 260.443341)" fill-opacity="1" fill="#d4d4d4" fill-rule="nonzero" stroke-linejoin="round" d="M 32.812943 6.013878 C 24.210893 12.97088 14.069528 18.252769 3.203781 22.765011 C 1.724832 23.383747 0.110061 23.655387 -1.459436 23.368655 C -3.994777 22.931013 -5.383178 21.331355 -5.820826 18.796049 C -6.43957 15.083635 -4.462608 11.416495 -1.263249 9.681018 C -1.263249 9.681018 10.115604 3.508753 10.115604 3.508753 C 5.180743 2.859835 0.366613 3.010747 -4.37206 3.765302 C -10.484043 4.716042 -15.977282 8.232271 -19.810477 13.302884 C -19.840659 13.363249 -19.885933 13.408522 -19.916116 13.453795 C -23.507849 18.207495 -30.796955 16.290924 -31.792982 10.329935 C -31.913712 9.635744 -32.00426 8.926462 -32.049534 8.202089 C -32.8041 -1.124218 -28.231431 -10.027974 -20.731047 -15.128769 C -14.543607 -19.324098 -7.103588 -22.281956 2.253028 -23.338334 C 2.253028 -23.338334 29.990867 -23.655247 29.990867 -23.655247 C 29.990867 -23.655247 32.812943 6.013878 32.812943 6.013878 Z M 32.812943 6.013878 " stroke="#253237" stroke-width="2" stroke-opacity="1" stroke-miterlimit="4"/><path fill="#ffffff" d="M 19.261719 257.265625 C 12.199219 256.113281 14.03125 243.839844 21.09375 244.992188 C 21.09375 244.992188 55.953125 254.15625 55.953125 254.15625 C 55.953125 254.15625 52.828125 263.449219 52.828125 263.449219 C 52.828125 263.449219 19.261719 257.265625 19.261719 257.265625 Z M 19.261719 257.265625 " fill-opacity="1" fill-rule="nonzero"/><path stroke-linecap="butt" transform="matrix(-0.258841, 0, 0, 0.258844, 37.60832, 258.802776)" fill="none" stroke-linejoin="miter" d="M -70.872898 -17.951037 C -70.872898 -17.951037 -58.799845 17.950717 -58.799845 17.950717 C -58.799845 17.950717 70.879836 -5.938512 70.879836 -5.938512 " stroke="#253237" stroke-width="2" stroke-opacity="1" stroke-miterlimit="10"/><path stroke-linecap="round" transform="matrix(-0.258841, 0, 0, 0.258844, 42.049255, 250.500101)" fill="none" stroke-linejoin="round" d="M 53.719188 -14.125671 C 53.719188 -14.125671 -53.715893 14.124889 -53.715893 14.124889 " stroke="#253237" stroke-width="2" stroke-opacity="1" stroke-miterlimit="4"/><path stroke-linecap="round" transform="matrix(-0.258841, 0, 0, 0.258844, 52.460867, 258.303206)" fill-opacity="1" fill="#ffffff" fill-rule="nonzero" stroke-linejoin="round" d="M 2.610524 -27.309189 C 2.610524 -27.309189 -15.09159 -19.688177 -15.09159 -19.688177 C -15.09159 -19.688177 -0.015365 27.305543 -0.015365 27.305543 C -0.015365 27.305543 15.091043 22.763118 15.091043 22.763118 C 15.091043 22.763118 2.610524 -27.309189 2.610524 -27.309189 Z M 2.610524 -27.309189 " stroke="#253237" stroke-width="2" stroke-opacity="1" stroke-miterlimit="4"/><path stroke-linecap="round" transform="matrix(-0.258841, 0, 0, 0.258844, 16.312185, 252.05887)" fill="none" stroke-linejoin="round" d="M 2.534123 -20.102427 C 11.392726 2.730424 3.937615 16.010602 -11.395162 20.115385 " stroke="#253237" stroke-width="2" stroke-opacity="1" stroke-miterlimit="4"/><path stroke-linecap="round" transform="matrix(-0.258841, 0, 0, 0.258844, 58.790201, 277.969875)" fill-opacity="1" fill="#253237" fill-rule="nonzero" stroke-linejoin="round" d="M 77.241757 20.247924 C 76.336278 8.431584 77.815227 -41.73127 64.217951 -67.491797 C 64.217951 -67.491797 -69.294924 -67.491797 -69.294924 -67.491797 C -78.153527 -47.465892 -74.169419 11.012164 -74.169419 23.613241 C -74.169419 33.679013 -73.595949 31.520984 -63.499859 42.960046 C -53.41886 54.414199 -27.431613 67.498193 -21.425269 67.498193 C -15.434016 67.498193 26.550026 59.228264 53.986039 47.683564 C 67.704045 41.918759 78.162327 32.064264 77.241757 20.247924 Z M 77.241757 20.247924 " stroke="#253237" stroke-width="2" stroke-opacity="1" stroke-miterlimit="4"/><path stroke-linecap="butt" transform="matrix(-0.258841, 0, 0, 0.258844, 83.703126, 245.541591)" fill-opacity="1" fill="#ffffff" fill-rule="nonzero" stroke-linejoin="miter" d="M -145.857567 -56.450524 C -145.857567 -56.450524 -103.058594 58.815383 -103.058594 58.815383 C -100.613801 65.410198 -94.29054 69.741347 -87.273078 69.6508 C -87.273078 69.6508 148.287279 66.557123 148.287279 66.557123 C 148.287279 66.557123 148.287279 48.643974 148.287279 48.643974 C 148.287279 48.643974 60.878375 51.843289 60.878375 51.843289 C 60.878375 51.843289 23.768828 -63.226433 23.768828 -63.226433 C 22.516249 -67.104849 18.879241 -69.745793 14.804586 -69.730702 C 14.804586 -69.730702 -137.149878 -69.29306 -137.149878 -69.29306 C -143.759874 -69.277969 -148.287269 -62.607698 -145.857567 -56.450524 Z M -145.857567 -56.450524 " stroke="#253237" stroke-width="2" stroke-opacity="1" stroke-miterlimit="10"/><path stroke-linecap="butt" transform="matrix(-0.258841, 0, 0, 0.258844, 96.606341, 244.219407)" fill-opacity="1" fill="#ffffff" fill-rule="nonzero" stroke-linejoin="miter" d="M 4.998597 -7.75937 C 1.93506 -9.826852 -3.709093 -8.996841 -6.455712 -6.53699 C -9.202332 -4.077139 -10.092719 0.193646 -8.704318 3.604237 C -7.300826 7.029919 -3.784549 9.414315 -0.102268 9.62559 C 3.821474 9.821775 7.89613 7.377015 8.997796 3.619328 C 10.099462 -0.15345 8.877065 -5.767343 4.998597 -7.75937 Z M 4.998597 -7.75937 " stroke="#253237" stroke-width="2" stroke-opacity="1" stroke-miterlimit="10"/><path stroke-linecap="round" transform="matrix(-0.258841, 0, 0, 0.258844, 92.373514, 287.274826)" fill-opacity="1" fill="#253237" fill-rule="nonzero" stroke-linejoin="round" d="M 27.762283 4.929429 C 27.762283 4.929429 -4.623682 -28.406835 -4.623682 -28.406835 C -4.623682 -28.406835 -27.75867 -1.016468 -27.75867 -1.016468 C -27.75867 -1.016468 -22.461618 8.883301 -22.461618 8.883301 C -22.461618 8.883301 6.770262 28.411198 6.770262 28.411198 C 6.770262 28.411198 18.948954 20.322363 18.948954 20.322363 C 18.948954 20.322363 27.762283 4.929429 27.762283 4.929429 Z M 27.762283 4.929429 " stroke="#253237" stroke-width="2" stroke-opacity="1" stroke-miterlimit="4"/><path stroke-linecap="round" transform="matrix(-0.258841, 0, 0, 0.258844, 102.509463, 270.051837)" fill-opacity="1" fill="#253237" fill-rule="nonzero" stroke-linejoin="round" d="M -98.87193 -59.206507 C -98.87193 -59.206507 -122.218196 -50.876213 -122.308744 -24.708226 C -122.48984 25.439536 -21.015829 80.688094 -21.015829 80.688094 C -21.015829 80.688094 114.036361 -8.787104 114.036361 -8.787104 C 114.036361 -8.787104 122.502589 -12.212786 122.502589 -12.212786 C 122.502589 -12.212786 -59.800512 -80.696249 -98.87193 -59.206507 Z M -98.87193 -59.206507 " stroke="#253237" stroke-width="2" stroke-opacity="1" stroke-miterlimit="4"/><path stroke-linecap="round" transform="matrix(-0.258841, 0, 0, 0.258844, 74.239387, 279.06842)" fill-opacity="1" fill="#253237" fill-rule="nonzero" stroke-linejoin="round" d="M -148.977203 45.567376 C -148.977203 45.567376 41.626122 -76.519714 50.031985 -81.303596 C 57.20036 -85.378196 76.35124 -97.164354 95.230477 -91.95792 C 114.109714 -86.751487 131.027079 -69.81926 139.493308 -45.084929 C 144.33762 -30.944558 146.616409 -6.828962 147.687893 11.250189 C 148.970654 32.875751 142.27011 54.440949 128.129547 70.844987 C 121.700646 78.315087 113.762614 84.804265 104.345632 87.73194 C 102.353578 88.350676 100.286068 88.893956 98.173284 89.346689 C 62.089947 97.163885 25.025674 80.971122 4.758036 50.124891 C 4.758036 50.124891 0.306098 43.348982 0.306098 43.348982 C 0.306098 43.348982 -124.51418 89.210869 -126.476051 88.54686 C -126.476051 88.54686 -148.977203 45.567376 -148.977203 45.567376 Z M -148.977203 45.567376 " stroke="#253237" stroke-width="2" stroke-opacity="1" stroke-miterlimit="4"/><path stroke-linecap="round" transform="matrix(-0.258841, 0, 0, 0.258844, 49.785126, 272.082462)" fill-opacity="1" fill="#253237" fill-rule="nonzero" stroke-linejoin="round" d="M -54.283581 -47.553756 C -54.26849 -47.538665 -54.102486 -47.629212 -53.800659 -47.840487 C -53.438468 -48.081945 -53.00082 -48.383767 -52.472624 -48.745954 C -51.295501 -49.545783 -49.575091 -50.73798 -47.311393 -52.201818 C -42.79909 -55.08422 -36.098545 -59.189003 -27.073938 -62.478865 C -22.561635 -64.093614 -17.430587 -65.391449 -11.831709 -65.693272 C -6.23283 -65.934729 -0.181213 -65.104718 5.704401 -62.841052 C 11.605105 -60.622658 17.339806 -57.106429 22.54631 -52.609278 C 25.157108 -50.375794 27.677357 -47.915943 30.031603 -45.274998 C 32.355665 -42.603871 34.408084 -39.630923 36.219042 -36.461789 C 39.840958 -30.123523 42.527213 -23.43816 44.44381 -16.828254 C 46.239676 -10.173074 47.673351 -3.60844 49.046661 2.594006 C 51.763098 15.029082 53.242047 26.422871 53.438234 36.035909 C 53.589147 45.648947 52.623303 53.405778 51.702733 58.702758 C 51.280176 61.358793 50.812345 63.396093 50.52561 64.784476 C 50.40488 65.418302 50.29924 65.946491 50.208693 66.369042 C 50.148327 66.731229 50.133236 66.912322 50.148327 66.912322 C 50.163419 66.927413 50.223784 66.74632 50.329423 66.399225 C 50.435062 65.976673 50.570884 65.463576 50.75198 64.829749 C 51.09908 63.456458 51.657459 61.434249 52.140381 58.778213 C 53.196773 53.496324 54.283348 45.69422 54.238074 36.020818 C 54.147526 26.347415 52.744034 14.86308 50.072871 2.382731 C 48.714652 -3.864989 47.326251 -10.384349 45.515293 -17.130076 C 43.583605 -23.830529 40.882259 -30.591347 37.215069 -37.035251 C 35.358837 -40.249658 33.276236 -43.282971 30.891808 -46.014463 C 28.477197 -48.715772 25.926765 -51.190714 23.270693 -53.469472 C 17.973641 -58.011896 12.11821 -61.588489 6.066592 -63.821974 C 0.0451572 -66.100732 -6.157374 -66.915652 -11.876983 -66.644012 C -17.596592 -66.281825 -22.803096 -64.908534 -27.345582 -63.23342 C -36.430554 -59.822829 -43.100916 -55.582227 -47.552854 -52.564005 C -49.801461 -51.054894 -51.476597 -49.802332 -52.608445 -48.927047 C -53.12155 -48.519587 -53.529016 -48.187583 -53.876116 -47.931034 C -54.14776 -47.689576 -54.283581 -47.568847 -54.283581 -47.553756 Z M -54.283581 -47.553756 " stroke="#253237" stroke-width="2" stroke-opacity="1" stroke-miterlimit="4"/><path stroke-linecap="round" transform="matrix(-0.258841, 0, 0, 0.258844, 120.010477, 296.371651)" fill-opacity="1" fill="#253237" fill-rule="nonzero" stroke-linejoin="round" d="M 35.640893 -21.476804 C 14.467777 -16.376008 -7.067532 -23.514104 -28.768845 -36.220819 C -48.010273 -45.758402 -55.193739 -40.385966 -59.90223 -31.919853 C -47.436803 -6.129144 -23.924532 19.767203 14.829968 45.769188 C 14.829968 45.769188 59.90773 18.22791 59.90773 18.22791 C 59.90773 18.22791 35.640893 -21.476804 35.640893 -21.476804 Z M 35.640893 -21.476804 " stroke="#253237" stroke-width="2" stroke-opacity="1" stroke-miterlimit="4"/><path stroke-linecap="round" transform="matrix(-0.258841, 0, 0, 0.258844, 83.475088, 298.46207)" fill-opacity="1" fill="#253237" fill-rule="nonzero" stroke-linejoin="round" d="M -33.734789 -21.901578 C -17.737994 -7.12738 -11.701467 14.73964 -10.222518 39.851249 C -7.460808 61.144807 1.005421 64.132847 10.648772 63.348109 C 25.18171 38.659052 33.647938 4.734234 33.738486 -41.957664 C 33.738486 -41.957664 -14.191535 -64.126507 -14.191535 -64.126507 C -14.191535 -64.126507 -33.734789 -21.901578 -33.734789 -21.901578 Z M -33.734789 -21.901578 " stroke="#253237" stroke-width="2" stroke-opacity="1" stroke-miterlimit="4"/><path stroke-linecap="round" transform="matrix(0.222219, 0, 0, 0.222222, 93.055268, 283.839385)" fill="none" stroke-linejoin="round" d="M -87.841709 -81.454972 C -87.841709 -81.454972 87.836485 30.8341 87.836485 30.8341 C 87.836485 30.8341 58.058732 81.441526 58.058732 81.441526 " stroke="#d4d4d4" stroke-width="2" stroke-opacity="1" stroke-miterlimit="4"/><path stroke-linecap="round" transform="matrix(0.222219, 0, 0, 0.222222, 96.160333, 267.59471)" fill="none" stroke-linejoin="round" d="M -54.036692 22.126543 C -54.036692 22.126543 54.035105 -22.117601 54.035105 -22.117601 " stroke="#d4d4d4" stroke-width="2" stroke-opacity="1" stroke-miterlimit="4"/></svg>